<svg id="Layer_3" height="512" viewBox="0 0 64 64" width="512" xmlns="http://www.w3.org/2000/svg" data-name="Layer 3"><path d="m62.293 19.707 1.414-1.414-7.793-7.793 2.172-2.172a3.121 3.121 0 0 0 -4.414-4.414l-30.672 30.672-1.672-1.672a3.114 3.114 0 0 0 -4.709 4.053l-13.877 13.876a5.95 5.95 0 1 0 8.415 8.414l13.875-13.875a3.09 3.09 0 0 0 1.847.618 3.121 3.121 0 0 0 2.207-5.328l-1.672-1.672 6.086-6.086 7.793 7.793 1.414-1.414-7.793-7.793 1.586-1.586 7.793 7.793 1.414-1.414-7.793-7.793 1.586-1.586 7.793 7.793 1.414-1.414-7.793-7.793 1.586-1.586 7.793 7.793 1.414-1.414-7.793-7.793 1.586-1.586 7.793 7.793 1.414-1.414-7.793-7.793 1.586-1.586 7.793 7.793 1.414-1.414-7.793-7.793 1.586-1.586 7.793 7.793 1.414-1.414-7.793-7.793 1.586-1.586zm-52.551 38.136a3.95 3.95 0 0 1 -5.585-5.586l13.843-13.843 5.586 5.586zm18.258-14.964a1.121 1.121 0 0 1 -1.914.793l-7.758-7.758a1.121 1.121 0 0 1 .793-1.914 1.112 1.112 0 0 1 .793.328l7.758 7.758a1.133 1.133 0 0 1 .328.793zm-3.586-6.879 30.672-30.672a1.121 1.121 0 0 1 1.586 1.586l-30.672 30.672z"/></svg>