<?xml version="1.0" encoding="UTF-8"?>
<svg xmlns="http://www.w3.org/2000/svg" id="Layer_3" data-name="Layer 3" viewBox="0 0 64 64" width="512" height="512"><path d="M5.293,53.707a1,1,0,0,0,1.414,0L25,35.414l.293.293a1,1,0,0,0,1.414,0l2.766-2.766,8.049,5.123L36,39.586l-.293-.293a1,1,0,0,0-1.414,0L19.328,54.258a4.535,4.535,0,0,0,6.414,6.414L40.707,45.707a1,1,0,0,0,0-1.414L40.414,44l2.5-2.5.546.347a1,1,0,0,0,1.244-.137l2-2a1,1,0,0,0,0-1.414L46.414,38,48,36.414l.293.293a1,1,0,0,0,1.414,0l3-3a1,1,0,0,0,0-1.414l-5-5a1,1,0,0,0-1.414,0l-3,3a1,1,0,0,0,0,1.414l.293.293L42,33.586,34.414,26,46,14.414,51.586,20l-1.293,1.293a1,1,0,0,0,0,1.414l6,6a1,1,0,0,0,1.414,0L59,27.414l.293.293a1,1,0,0,0,1.414,0l2-2a1,1,0,0,0,.174-1.181l-7-13a1,1,0,0,0-.174-.233l-9-9a1,1,0,0,0-1.414,0l-5,5a1,1,0,0,0,0,1.414L40.586,9,29,20.586l-.293-.293a1,1,0,0,0-1.414,0l-8,8a1,1,0,0,0,0,1.414l.293.293L1.293,48.293a1,1,0,0,0,0,1.414Zm19.035,5.551a2.536,2.536,0,0,1-3.586-3.586L35,41.414,38.586,45ZM39,42.586,37.414,41l1.837-1.837L41.189,40.4Zm8-13.172L50.586,33,49,34.586,45.414,31Zm-2,4L46.586,35,45,36.586,43.414,35Zm12-6.828L52.414,22,54,20.414,58.586,25ZM46,4.414l8.189,8.19,6.033,11.2-5.515-5.515a1,1,0,0,0-1.414,0L53,18.586,42.414,8Zm-4,6L44.586,13,33,24.586,30.414,22Zm-14,12L44.586,39l-.726.726-13.99-8.9a1,1,0,0,0-1.244.137L26,33.586,21.414,29Zm-7,9L23.586,34,6,51.586,3.414,49Z"/></svg>
