<svg id="Layer_3" height="512" viewBox="0 0 64 64" width="512" xmlns="http://www.w3.org/2000/svg" data-name="Layer 3"><path d="m62 53h-44.069a8.008 8.008 0 0 0 -6.931-6.931v-44.069a1 1 0 0 0 -1-1h-8a1 1 0 0 0 -1 1v60a1 1 0 0 0 1 1h60a1 1 0 0 0 1-1v-8a1 1 0 0 0 -1-1zm-46.09 0h-4.91v-4.91a6.008 6.008 0 0 1 4.91 4.91zm-6.91-50v50h-6v-50zm52 58h-58v-6h58z"/><path d="m23.121 42.465a1.829 1.829 0 0 1 -2.586-2.586l38.172-38.172-1.414-1.414-38.172 38.172a3.828 3.828 0 0 0 5.414 5.414l39.172-39.172-1.414-1.414z"/><path d="m18.589 35.911a1 1 0 0 0 1.18-.27l5-6-1.538-1.282-2.7 3.237 1.453-9.444a1 1 0 0 0 -1.869-.626l-5.115 9.507v-2.033h-2v6a1 1 0 0 0 .756.97 1.019 1.019 0 0 0 .244.03 1 1 0 0 0 .881-.526l4.248-7.89-1.117 7.264a1 1 0 0 0 .577 1.063z"/><path d="m28.219 43.375-4 5a1 1 0 0 0 .781 1.625h6v-2h-3.919l2.7-3.375z"/><path d="m34.235 40h12.53v2h-12.53z" transform="matrix(.878 -.479 .479 .878 -14.688 24.4)"/><path d="m19.026 15.749h16.446v2h-16.446z" transform="matrix(.335 -.942 .942 .335 2.341 36.815)"/></svg>