<?xml version="1.0" encoding="UTF-8"?>
<svg xmlns="http://www.w3.org/2000/svg" id="Layer_3" data-name="Layer 3" viewBox="0 0 64 64" width="512" height="512"><path d="M6,23h5a1,1,0,0,0,1-1h2a1,1,0,0,0,1,1v2.525A9.008,9.008,0,0,0,9,34V60a3,3,0,0,0,3,3H24a3,3,0,0,0,3-3V59h2v1a3,3,0,0,0,3,3H44a3,3,0,0,0,3-3V34a9.008,9.008,0,0,0-6-8.475V23a1,1,0,0,0,1-1h8a1,1,0,0,1,1,1V36.026a4.948,4.948,0,0,0,0,7.948V50a1,1,0,0,0,1,1h4a1,1,0,0,0,1-1V43.974a4.948,4.948,0,0,0,0-7.948V23a7.01,7.01,0,0,0-7-7H41.858a3.981,3.981,0,0,0-7.716,0H31V15h1a1,1,0,0,0,1-1V10a1,1,0,0,0-1-1h-.026A4.948,4.948,0,0,0,33,6,5,5,0,0,0,23,6a4.948,4.948,0,0,0,1.026,3H24a1,1,0,0,0-1,1v4a1,1,0,0,0,1,1h1v1H21.858a3.981,3.981,0,0,0-7.716,0H12a1,1,0,0,0-1-1H6a1,1,0,0,0-1,1v6A1,1,0,0,0,6,23Zm11,0h2v2.059a8.5,8.5,0,0,0-2,0Zm5-1H34a1,1,0,0,0,1,1v2.525A9.008,9.008,0,0,0,29,34v2H27V34a9.008,9.008,0,0,0-6-8.475V23A1,1,0,0,0,22,22Zm5,20h2V53H27Zm0-2V38h2v2ZM25,60a1,1,0,0,1-1,1H12a1,1,0,0,1-1-1V34a7,7,0,0,1,14,0Zm2-3V55h2v2ZM45,34V60a1,1,0,0,1-1,1H32a1,1,0,0,1-1-1V34a7,7,0,0,1,14,0Zm-6-8.941a8.5,8.5,0,0,0-2,0V23h2ZM56.816,41A3,3,0,0,1,55,42.816V42H53v.816A3,3,0,0,1,51.184,41H52V39h-.816A3,3,0,0,1,53,37.184V38h2v-.816A3,3,0,0,1,56.816,39H56v2ZM55,49H53V44.9a5,5,0,0,0,2,0Zm0-26V35.1a5,5,0,0,0-2,0V23a3,3,0,0,0-3-3H42V18h8A5.007,5.007,0,0,1,55,23ZM36,17a2,2,0,0,1,4,0v4H36Zm-5-4H25V11h6ZM27,3.184V4h2V3.184A3,3,0,0,1,30.816,5H30V7h.816A3,3,0,0,1,29,8.816V8H27v.816A3,3,0,0,1,25.184,7H26V5h-.816A3,3,0,0,1,27,3.184ZM26,18a1,1,0,0,0,1-1V15h2v2a1,1,0,0,0,1,1h4v2H22V18ZM16,17a2,2,0,0,1,4,0v4H16Zm-2,1v2H12V18ZM7,17h3v4H7Z"/></svg>
