<svg id="Layer_3" height="512" viewBox="0 0 64 64" width="512" xmlns="http://www.w3.org/2000/svg" data-name="Layer 3"><path d="m58.874 53.486a1 1 0 0 0 -1.455-1.3l-5.847 4.176-1.611-5.637-1.922.55 2 7a1 1 0 0 0 1.542.539l3.391-2.422-2.846 5.122a1 1 0 0 0 .874 1.486h10v-2h-8.3z"/><path d="m30.149 55.474a1 1 0 0 0 .144 1.233l4.293 4.293h-4.586v2h7a1 1 0 0 0 .707-1.707l-3-3.005 4.981 1.661a1 1 0 0 0 1.265-1.265l-2-6-1.9.632 1.368 4.1-7.1-2.368a1 1 0 0 0 -1.172.426z"/><path d="m11.5 24.672-10.086-4.582-.828 1.82 11 5a.95.95 0 0 0 1.05-.151l23.383 9.676 7.654 24.665a2.691 2.691 0 0 0 2.58 1.9 2.747 2.747 0 0 0 2.634-3.527l-6.575-22.19a2.946 2.946 0 0 0 .984-1.665l.684-3.418a1 1 0 0 0 .006-.219 5.36 5.36 0 0 0 1.963-2.661.979.979 0 0 0 .042-.32h.009v-4a1 1 0 0 0 -.581-.908l-9.895-4.567a26.683 26.683 0 0 0 -16.132-15.648l-8.061-2.821a1 1 0 0 0 -1.038.237l-2 2a1 1 0 0 0 -.242 1.023l1 3a1 1 0 0 0 .616.627l7.962 2.81-1.064 1.6-2.745-1.1a3.513 3.513 0 0 0 -4.388 1.58l-8.009-3.739-.846 1.812 14.111 6.585zm12.428-9.055a.993.993 0 0 0 -.472-.493l.436-.653a18.377 18.377 0 0 1 4.5 6.189l-.341 1.024a.989.989 0 0 0 .31 1.069 4.926 4.926 0 0 0 -1.474 1.407l-5.337-2.239 2.369-5.527a1 1 0 0 0 .005-.777zm3.019 10.736a1 1 0 0 0 1.309-.536 2.979 2.979 0 0 1 3.311-1.766 3.019 3.019 0 0 1 2.426 2.693 2.875 2.875 0 0 1 -.219 1.384 1 1 0 0 0 .534 1.314l7.555 3.164-.524 2.619a.986.986 0 0 1 -1.313.7l-26.476-10.952 1.588-3.573zm15.4 4.286-6.431-2.693a4.9 4.9 0 0 0 .074-1.371 4.543 4.543 0 0 0 -.08-.464l7.749 3.39a3.355 3.355 0 0 1 -1.32 1.138zm4.63 29.4a.747.747 0 0 1 -.716.96.7.7 0 0 1 -.67-.493l-7.169-23.077.834.345a2.946 2.946 0 0 0 1.134.226h.047zm-2.977-32.568-9.791-4.283a4.871 4.871 0 0 0 -2.292-1.106c-.1-.019-.207-.021-.311-.033l-1.369-.6.227-.679a1.151 1.151 0 0 1 1.541-.667l11.995 5.537zm-33.856-23.201 1.119-1.119 7.467 2.614a24.679 24.679 0 0 1 14.07 12.509 3.1 3.1 0 0 0 -3.169.374 20.42 20.42 0 0 0 -11.244-9.748l-7.593-2.68zm9.372 7.259a18.418 18.418 0 0 1 2.807 1.684l-.758 1.136-3.1-1.241zm-8.249 2.159a1.5 1.5 0 0 1 1.248-.688 1.522 1.522 0 0 1 .562.108l8.6 3.44-1.971 4.6-3.755-1.575.963-2.167a1 1 0 0 0 -.491-1.312z"/><path d="m20.142 41.01-.284 1.98a15.6 15.6 0 0 1 10.442 6.345l.891 1.246 1.626-1.162-.89-1.246a17.6 17.6 0 0 0 -11.785-7.163z"/><path d="m18 54a13.3 13.3 0 0 1 8.28 2.9l1.095.877 1.25-1.562-1.1-.876a15.307 15.307 0 0 0 -9.525-3.339z"/><path d="m52.665 46.533-.626 2.192 1.922.55.627-2.192a5.653 5.653 0 0 1 5.412-4.083v-2a7.661 7.661 0 0 0 -7.335 5.533z"/><path d="m48 41h2v2h-2z"/><path d="m59 48h2v2h-2z"/><path d="m22 47h2v2h-2z"/><path d="m21 59h2v2h-2z"/></svg>