<?xml version="1.0" encoding="UTF-8"?>
<svg xmlns="http://www.w3.org/2000/svg" id="Layer_3" data-name="Layer 3" viewBox="0 0 64 64" width="512" height="512"><path d="M25.618,3a3.6,3.6,0,0,0-3.236-2H19.618a3.6,3.6,0,0,0-3.236,2A3.638,3.638,0,0,0,16,4.618V19a1,1,0,0,0-1,1v.055a9.942,9.942,0,0,0-8.667,7.494l-2.251,9A2.783,2.783,0,0,0,6.781,40a5.136,5.136,0,0,0,4.282-2.292,6.582,6.582,0,0,0,1.07-2.988l.464-4.64A3.4,3.4,0,0,1,15,27.162V50a1,1,0,0,0,1,1v3a1,1,0,0,0,1,1h1v8h2V55h2v8h2V55h1a1,1,0,0,0,1-1V51a1,1,0,0,0,1-1V20a1,1,0,0,0-1-1V4.618A3.638,3.638,0,0,0,25.618,3ZM18,4.618A1.619,1.619,0,0,1,19.618,3H20V19H18ZM25,21V49H17V21ZM10.606,29.881l-.463,4.64A4.579,4.579,0,0,1,9.4,36.6,3.142,3.142,0,0,1,6.781,38,.783.783,0,0,1,6,37.219a.851.851,0,0,1,.022-.19l2.25-9A7.95,7.95,0,0,1,15,22.069v3.024A5.4,5.4,0,0,0,10.606,29.881ZM24,53H18V51h6ZM22,19V3h.382A1.619,1.619,0,0,1,24,4.618V19Z"/><rect x="20" y="24" width="2" height="20"/><path d="M30.77,37.642A3.844,3.844,0,0,0,32.63,43.6l3.656,1.218A3.578,3.578,0,0,0,41,41.419v-4.8a7.951,7.951,0,0,1,1.206-4.226,3.965,3.965,0,0,0,.16-4.531L43,25.64l.634,2.221a3.96,3.96,0,0,0,.116,4.468A7.98,7.98,0,0,1,45,36.618v4.8a3.578,3.578,0,0,0,4.714,3.4L53.369,43.6a3.844,3.844,0,0,0,1.861-5.956.908.908,0,0,0-.113-.127,9.61,9.61,0,0,1-3-7.208l.066-2.647a1.017,1.017,0,0,0-.006-.135,2.837,2.837,0,0,0-2.27-2.47l-.951-1.426L48.243,19H50a1,1,0,0,0,1-1v-.912a6.335,6.335,0,0,1,5.2,4.992A92.974,92.974,0,0,1,58,40.3V63h2V40.3a95.047,95.047,0,0,0-1.843-18.609A8.341,8.341,0,0,0,51,15.068V14a1,1,0,0,0-1-1H47.319l-.331-2.152a1,1,0,0,0-1.435-.743l-2,1a1,1,0,0,0-.448.448l-.1.211-.1-.211a1,1,0,0,0-.448-.448l-2-1a1,1,0,0,0-1.435.743L38.681,13H36a1,1,0,0,0-1,1v4a1,1,0,0,0,1,1h1.757l-.712,4.629-.951,1.426a2.837,2.837,0,0,0-2.27,2.47,1.017,1.017,0,0,0-.006.135l.066,2.647a9.61,9.61,0,0,1-3,7.208A.908.908,0,0,0,30.77,37.642ZM43,21a1,1,0,1,1-1,1A1,1,0,0,1,43,21ZM53.674,38.9a1.846,1.846,0,0,1-.937,2.8l-3.656,1.219A1.581,1.581,0,0,1,47,41.419v-4.8a10.011,10.011,0,0,0-1.606-5.426A1.979,1.979,0,0,1,45,30.011a1.959,1.959,0,0,1,1.237-1.829l2.805-1.121a.855.855,0,0,1,1.138.63l-.064,2.567A11.609,11.609,0,0,0,53.674,38.9ZM49,15v2H47.935l-.308-2Zm-3.779-2.492,1.791,11.644a1,1,0,0,0,.156.4l.58.869-2.253.9h0c-.067.027-.126.064-.191.094l-.566-1.981A2.983,2.983,0,0,0,44,19.184V14.236l.745-1.491Zm-4.442,0,.476.237L42,14.236v4.948a2.983,2.983,0,0,0-.737,5.253L40.7,26.418c-.065-.03-.124-.067-.191-.094h0l-2.253-.9.58-.869a1,1,0,0,0,.156-.4ZM37,17V15h1.373l-.308,2ZM32.326,38.9a11.609,11.609,0,0,0,3.558-8.643l-.064-2.567a.853.853,0,0,1,1.138-.63l2.805,1.121A1.959,1.959,0,0,1,41,30.011a2.061,2.061,0,0,1-.438,1.244A9.974,9.974,0,0,0,39,36.618v4.8a1.581,1.581,0,0,1-2.081,1.5L33.262,41.7a1.845,1.845,0,0,1-.936-2.8Z"/></svg>
