<?xml version="1.0" encoding="UTF-8"?>
<svg xmlns="http://www.w3.org/2000/svg" id="Layer_3" data-name="Layer 3" viewBox="0 0 64 64" width="512" height="512"><path d="M21,1V7.184A3,3,0,0,0,19,10V21a1,1,0,0,0-.868.5l-4,7A1,1,0,0,0,15,30h3V62a1,1,0,0,0,1,1H45a1,1,0,0,0,1-1V30h3a1,1,0,0,0,.868-1.5l-4-7A1,1,0,0,0,45,21H44V12a3,3,0,0,0-2-2.816V3H40V9.179a3,3,0,0,0-1,.587,3,3,0,0,0-1-.587V3H36V9.179a3,3,0,0,0-1,.587,3,3,0,0,0-1-.587V3H32V9.179a3,3,0,0,0-1,.587,3,3,0,0,0-1-.587V3H28V9.184A3,3,0,0,0,26,12v9H25V10a3,3,0,0,0-2-2.816V1ZM19.58,23h17.9l-2.142,5H16.723ZM36,30a1,1,0,0,0,.919-.606L38,26.872v7.739L27.262,46.325l1.475,1.351L38,37.571V55H20V30ZM20,57H38v4H20Zm24,4H40V26.872l1.081,2.522A1,1,0,0,0,42,30h2Zm3.277-33H42.659l-2.142-5h3.9ZM41,11a1,1,0,0,1,1,1v9H40V12A1,1,0,0,1,41,11Zm-4,0a1,1,0,0,1,1,1v9H36V12A1,1,0,0,1,37,11Zm-4,0a1,1,0,0,1,1,1v9H32V12A1,1,0,0,1,33,11Zm-5,1a1,1,0,0,1,2,0v9H28Zm-7,9V10a1,1,0,0,1,2,0V21Z"/><path d="M32.2,49.98l1.761-.352-1.665,1.665,1.414,1.414,4-4a1,1,0,0,0-.9-1.687l-3.8.76V47H31v2a1,1,0,0,0,1.2.98Z"/><path d="M22.846,44.331l-2.162.72.632,1.9,3-1A1,1,0,0,0,24.98,44.8l-.352-1.762,1.665,1.665,1.414-1.414-4-4a1,1,0,0,0-1.687.9Z"/></svg>
