<?xml version="1.0" encoding="UTF-8"?>
<svg xmlns="http://www.w3.org/2000/svg" id="Layer_3" data-name="Layer 3" viewBox="0 0 64 64" width="512" height="512"><path d="M6.293,59.707a1,1,0,0,0,1.414,0L9.5,57.914l1.793,1.793a1,1,0,0,0,1.414,0l2.774-2.773,1.738-.29a5.7,5.7,0,0,0,4.752-5.06l9.544-5.727-1.03-1.714-10,6A1,1,0,0,0,20,51a3.71,3.71,0,0,1-3.109,3.671l-1.548.258L13.914,53.5,25.707,41.707a1,1,0,0,0,0-1.414L25.414,40,50.5,14.914l.793.793a1,1,0,0,0,1.414,0L53,15.414l3.293,3.293a1.01,1.01,0,0,0,.336.222l5,2a1,1,0,0,0,1.3-1.3l-2-5a1.01,1.01,0,0,0-.222-.336L57.414,11l.293-.293a1,1,0,0,0,0-1.414l-3-3a.987.987,0,0,0-1.165-.165L51.707,4.293a1,1,0,0,0-1.362-.049l-15,13a1,1,0,0,0-.052,1.463L36.586,20,21,35.586l-.293-.293a1,1,0,0,0-1.414,0l-18,18a1,1,0,0,0,0,1.414ZM13.586,56,12,57.586,10.914,56.5,12.5,54.914ZM59.147,15.562,60.205,18.2l-2.643-1.058L54.414,14,56,12.414ZM55.586,10,52,13.586,50.414,12,54,8.414ZM50.951,6.365,52.086,7.5l-3.793,3.793a1,1,0,0,0,0,1.414l.793.793L41,21.586l-3.533-3.533ZM38,21.414,39.586,23,24,38.586,22.414,37Zm-18,16L23.586,41,10,54.586,6.414,51Zm-15,15L8.586,56,7,57.586,3.414,54Z"/></svg>
