<?xml version="1.0" encoding="UTF-8"?>
<svg xmlns="http://www.w3.org/2000/svg" id="Layer_3" data-name="Layer 3" viewBox="0 0 64 64" width="512" height="512"><path d="M8.949,63h0a5.9,5.9,0,0,0,4.205-1.743l23.551-23.55a1,1,0,0,0,0-1.414L36.414,36,59.646,12.768a4.621,4.621,0,0,0,0-6.536L55.768,2.354a4.62,4.62,0,0,0-6.506-.029L40.929,10H36a24.978,24.978,0,0,0-17.778,7.364L8.293,27.293A1,1,0,0,0,8,28v5a1,1,0,0,0,1,1h4a1,1,0,0,0,.707-.293L21,26.414,22.086,27.5l-.379.379a5.817,5.817,0,0,0-.115,8.115L4.743,52.843A5.95,5.95,0,0,0,8.949,63ZM59,9.5a2.6,2.6,0,0,1-.768,1.854L35,34.586,31.414,31,43.586,18.828a1,1,0,0,0,0-1.414,2,2,0,1,1,2.828-2.828,1,1,0,0,0,1.414,0L56.5,5.914l1.732,1.732A2.6,2.6,0,0,1,59,9.5ZM27.5,22.086l-.951-.952A15.761,15.761,0,0,1,36,18h.254a4.616,4.616,0,0,0,1.1,1.828l1.2,1.2L34,25.586l-4.293-4.293a1,1,0,0,0-1.414,0ZM50.646,3.768a2.7,2.7,0,0,1,3.708,0l.732.732-8.054,8.053a4,4,0,0,0-5.478,5.48L39.97,19.616l-1.2-1.2A2.64,2.64,0,0,1,38,16.561a2.584,2.584,0,0,1,.738-1.825ZM12.586,32H10V28.414l9.636-9.636A22.993,22.993,0,0,1,36,12h2.757l-1.4,1.293A4.566,4.566,0,0,0,36.055,16H36a17.779,17.779,0,0,0-12.656,5.243Zm9.828-7,2.344-2.343c.081-.082.171-.152.254-.231L26.086,23.5,23.5,26.086ZM22,32a3.8,3.8,0,0,1,1.121-2.707L29,23.414,32.586,27,30,29.586l-.293-.293a1.029,1.029,0,0,0-1.414,0l-5.281,5.281A3.793,3.793,0,0,1,22,32ZM6.157,54.257,29,31.414,34.586,37,11.742,59.843A3.92,3.92,0,0,1,8.951,61h0a3.95,3.95,0,0,1-2.792-6.743Z"/></svg>
