<?xml version="1.0" encoding="UTF-8"?>
<svg xmlns="http://www.w3.org/2000/svg" id="Layer_3" data-name="Layer 3" viewBox="0 0 64 64" width="512" height="512"><path d="M2,63H12a1,1,0,0,0,1-1V35a6,6,0,0,0-3-5.188V27a1,1,0,0,0,1-1V25h8.142A4,4,0,0,0,22,27.858V31H18a1,1,0,0,0-1,1v4a1,1,0,0,0,1,1v2.142A4,4,0,0,0,15,43V59a4,4,0,0,0,4,4h8a4,4,0,0,0,4-4V43a4,4,0,0,0-3-3.858V37a1,1,0,0,0,1-1V32a1,1,0,0,0-1-1H24V27.858a3.993,3.993,0,0,0,2.843-2.811,13.7,13.7,0,0,1,9.816,5A19.261,19.261,0,0,1,41,42.213V58a5,5,0,0,0,10,0V53h1a1,1,0,0,0,1-1V37a2.987,2.987,0,0,0,2.22-5A2.987,2.987,0,0,0,53,27V24a1,1,0,0,0-1-1H51V14.414l2.707-2.707-1.414-1.414-3,3A1,1,0,0,0,49,14v9H48a1,1,0,0,0-1,1V52a1,1,0,0,0,1,1h1v5a3,3,0,0,1-6,0V42.213a21.265,21.265,0,0,0-4.793-13.429,15.7,15.7,0,0,0-11.334-5.736c-.015-.06-.037-.117-.055-.176A2.994,2.994,0,1,0,23,20a3,3,0,1,0-3.818,2.872c-.013.043-.029.085-.04.128H11V22a1,1,0,0,0-1-1H4a1,1,0,0,0-1,1v4a1,1,0,0,0,1,1v2.812A6,6,0,0,0,1,35V62A1,1,0,0,0,2,63ZM17,45H29V57H17ZM27,61H19a2,2,0,0,1-2-2H29A2,2,0,0,1,27,61Zm2-18H17a2,2,0,0,1,2-2h8A2,2,0,0,1,29,43Zm-3-4H20V37h6Zm1-4H19V33h8Zm26,0a1,1,0,1,1,1-1A1,1,0,0,1,53,35Zm1-5a1,1,0,1,1-1-1A1,1,0,0,1,54,30Zm-5-5h2v2.78A2.96,2.96,0,0,0,50.78,32,2.96,2.96,0,0,0,51,36.22V51H49ZM26,19a1,1,0,1,1-1,1A1,1,0,0,1,26,19Zm-1,5a2,2,0,1,1-2-2A2,2,0,0,1,25,24Zm-5-5a1,1,0,1,1-1,1A1,1,0,0,1,20,19ZM5,23H9v2H5Zm1,4H8v2.09A6,6,0,0,0,7,29a6,6,0,0,0-1,.09ZM3,35a4,4,0,0,1,8,0V61H3Z"/><path d="M62,1H61a7.008,7.008,0,0,0-7,7V9a1,1,0,0,0,1,1h1a7.008,7.008,0,0,0,7-7V2A1,1,0,0,0,62,1ZM56,8a5.006,5.006,0,0,1,5-5A5.006,5.006,0,0,1,56,8Z"/></svg>
