<?xml version="1.0" encoding="UTF-8"?>
<svg xmlns="http://www.w3.org/2000/svg" id="Layer_3" data-name="Layer 3" viewBox="0 0 64 64" width="512" height="512"><path d="M46,5.051V2a1,1,0,0,0-1-1A22.025,22.025,0,0,0,23.047,21.633L21.414,20l.293-.293a1,1,0,0,0,0-1.414l-13-13a1,1,0,0,0-1.414,0l-6,6a1,1,0,0,0,0,1.414l13,13a1,1,0,0,0,1.414,0L16,25.414l3.151,3.151L4.288,45.164a4.786,4.786,0,0,0,.205,6.551l.689.689L1.293,56.293a1,1,0,0,0,0,1.414l5,5a1,1,0,0,0,1.414,0L11.6,58.818l.679.679a4.786,4.786,0,0,0,6.556.2L36.667,43.745a.912.912,0,0,0,.146-.164l.094-.131A21.86,21.86,0,0,0,45,45a1,1,0,0,0,1-1V40.949a17.975,17.975,0,0,0,0-35.9ZM35.872,41.458,27.914,33.5,32,29.414l2.051,2.051A5.242,5.242,0,0,0,43,27.758a5.21,5.21,0,0,0-1.536-3.708L39.414,22l1.975-1.975a7.318,7.318,0,0,1,2.246,10.566ZM12.841,57.235,10.505,54.9l6.586-6.586,2.336,2.336ZM6.755,51.149l6.586-6.586L15.677,46.9,9.091,53.485ZM11.6,39.995,21.04,29.454,34.545,42.959,24,52.392Zm21.808-19.63a7.262,7.262,0,0,1,5.968-1.156l-2.084,2.084a1,1,0,0,0,0,1.414l2.757,2.757A3.243,3.243,0,0,1,37.757,31a3.263,3.263,0,0,1-2.292-.949l-2.758-2.758a1,1,0,0,0-1.414,0L26.5,32.086l-3.959-3.959ZM46,22.151V17.09a5.991,5.991,0,0,1,.657,11.668A9.059,9.059,0,0,0,46,22.151ZM44,3.024V19.5a9.3,9.3,0,0,0-11.753-.758L25.03,23.893c-.014-.3-.03-.6-.03-.893A20.027,20.027,0,0,1,44,3.024ZM3.414,12,8,7.414,19.586,19,15,23.586ZM20,21.414l3.049,3.049c.017.264.051.526.078.79l-2.6,1.858L17.414,24ZM5.783,46.492l4.482-5,1.662,1.662L5.433,49.643a2.758,2.758,0,0,1-.342-1.312A2.786,2.786,0,0,1,5.783,46.492ZM7,60.586,3.414,57,6.6,53.818,10.182,57.4ZM17.5,58.2a2.851,2.851,0,0,1-3.148.348l6.487-6.487,1.664,1.665Zm20.61-16.439L44,33.519v9.457A19.806,19.806,0,0,1,38.112,41.763ZM46,38.949V30.936a8,8,0,0,0,0-15.867V7.051a15.979,15.979,0,0,1,0,31.9Z"/></svg>
