<?xml version="1.0" encoding="UTF-8"?>
<svg xmlns="http://www.w3.org/2000/svg" id="Layer_3" data-name="Layer 3" viewBox="0 0 64 64" width="512" height="512"><path d="M4,14h8a1,1,0,0,0,1-1V12h1.127A4,4,0,0,0,17,14.859V23H14a1,1,0,0,0-1,1v4a1,1,0,0,0,1,1V59c0,2.28,3.01,4,7,4s7-1.72,7-4V29a1,1,0,0,0,1-1V24a1,1,0,0,0-1-1H25V14.859A4,4,0,0,0,27.873,12h1.2a2.62,2.62,0,0,0,3.716,1.724l6.764-3.382a2.619,2.619,0,0,0,0-4.684L32.789,2.276A2.62,2.62,0,0,0,29.073,4h-1.2A4.006,4.006,0,0,0,24,1H18a4.006,4.006,0,0,0-3.873,3H13V3a1,1,0,0,0-1-1H4A3,3,0,0,0,1,5v6A3,3,0,0,0,4,14ZM26,59c0,.815-1.948,2-5,2s-5-1.185-5-2V29H26Zm1-32H15V25H27Zm-8-4V15h4v8ZM12,6h3a1,1,0,0,0,1-1,2,2,0,0,1,2-2h6a2,2,0,0,1,2,2,1,1,0,0,0,1,1h3a1,1,0,0,0,1-1V4.618a.635.635,0,0,1,.895-.553l6.763,3.382a.618.618,0,0,1,0,1.106L31.9,11.935A.637.637,0,0,1,31,11.382V11a1,1,0,0,0-1-1H27a1,1,0,0,0-1,1,2,2,0,0,1-2,2H18a2,2,0,0,1-2-2,1,1,0,0,0-1-1H12a1,1,0,0,0-1,1v1H7V4h4V5A1,1,0,0,0,12,6ZM3,5A1,1,0,0,1,4,4H5v8H4a1,1,0,0,1-1-1Z"/><path d="M54,27a.992.992,0,0,0,.985-.926,6.575,6.575,0,0,1,5.066,3.916l1.03,2.4A1,1,0,0,0,62,33a.988.988,0,0,0,.2-.021A1,1,0,0,0,63,32V27a9.01,9.01,0,0,0-8-8.941V18a1,1,0,0,0-1-1H42a1,1,0,0,0-1,1v1H39V17a1,1,0,0,0-1-1H34a1,1,0,0,0-1,1V27a1,1,0,0,0,1,1h4a1,1,0,0,0,1-1V25h2v1a1,1,0,0,0,1,1h3v6H44a1,1,0,0,0-1,1V58a5,5,0,0,0,10,0V34a1,1,0,0,0-1-1H51V27Zm7,0v.615a8.57,8.57,0,0,0-6-3.554V20.08A7.006,7.006,0,0,1,61,27ZM37,26H35V18h2Zm2-3V21h2v2Zm4-4H53v6H43Zm8,39a3,3,0,0,1-6,0V35h6ZM49,33H47V27h2Z"/></svg>
