<?xml version="1.0" encoding="UTF-8"?>
<svg xmlns="http://www.w3.org/2000/svg" id="Layer_3" data-name="Layer 3" viewBox="0 0 64 64" width="512" height="512"><path d="M13,19V34a3.473,3.473,0,0,0,2.735,3.41A66.886,66.886,0,0,0,30.213,39h3.574a66.886,66.886,0,0,0,14.478-1.589A3.473,3.473,0,0,0,51,34V19a1,1,0,0,0,1-1V14a1,1,0,0,0-1-1H46a1,1,0,0,0-1-1H41a1,1,0,0,0-1,1H24a1,1,0,0,0-1-1H19a1,1,0,0,0-1,1H13a1,1,0,0,0-1,1v4A1,1,0,0,0,13,19Zm37-4v2H46V15Zm-8-1h2v4H42Zm-2,1v2H24V15ZM20,14h2v4H20Zm3,6a1,1,0,0,0,1-1h4.761l-1.793,1.793,1.414,1.414L31.589,19h4.172l-7.293,7.293,1.414,1.414L38.589,19H40a1,1,0,0,0,1,1h4a1,1,0,0,0,1-1h3v4.586l-4.707,4.707,1.414,1.414L49,26.414V34a1.482,1.482,0,0,1-1.169,1.457A64.847,64.847,0,0,1,38.617,36.8l4.09-4.09-1.414-1.414-5.657,5.656c-.616.018-1.232.051-1.849.051H30.213a64.841,64.841,0,0,1-14.044-1.542,1.465,1.465,0,0,1-.671-.368l6.384-6.383-1.414-1.414L15,32.76V19h3a1,1,0,0,0,1,1Zm-9-5h4v2H14Z"/><path d="M8,32.9V38a1,1,0,0,0,.03.243L12.815,57.39A7.4,7.4,0,0,0,20,63H44a7.4,7.4,0,0,0,7.184-5.609L55.97,38.243A1,1,0,0,0,56,38V32.9A5.009,5.009,0,0,0,60,28V24a5.009,5.009,0,0,0-4-4.9V13A12.013,12.013,0,0,0,44,1H20A12.013,12.013,0,0,0,8,13v6.1A5.009,5.009,0,0,0,4,24v4A5.009,5.009,0,0,0,8,32.9ZM49.244,56.905A5.4,5.4,0,0,1,44,61H20a5.4,5.4,0,0,1-5.244-4.095L12.178,46.593l4.033,8.065A4.212,4.212,0,0,0,20,57H44a4.214,4.214,0,0,0,3.789-2.342l4.032-8.065ZM58,24v4a3,3,0,0,1-2,2.816V21.184A3,3,0,0,1,58,24ZM20,3H44A10.01,10.01,0,0,1,54,13V37.764l-8,16A2.224,2.224,0,0,1,44,55H20a2.224,2.224,0,0,1-2-1.236l-8-16V13A10.01,10.01,0,0,1,20,3ZM6,24a3,3,0,0,1,2-2.816v9.632A3,3,0,0,1,6,28Z"/><rect x="20" y="42.576" width="2.001" height="9.849" transform="translate(-17.482 12.623) rotate(-23.962)"/><rect x="38.076" y="46.5" width="9.849" height="2.001" transform="translate(-17.87 67.502) rotate(-66.038)"/></svg>
