<?xml version="1.0" encoding="UTF-8"?>
<svg xmlns="http://www.w3.org/2000/svg" id="Layer_3" data-name="Layer 3" viewBox="0 0 64 64" width="512" height="512"><path d="M32,32a9,9,0,1,0,9,9A9.01,9.01,0,0,0,32,32Zm0,16a7,7,0,1,1,7-7A7.009,7.009,0,0,1,32,48Z"/><path d="M49,46h4a1,1,0,0,0,1-1h2a1.006,1.006,0,0,0,.555-.168l3-2A1,1,0,0,0,60,42V40a1,1,0,0,0-.445-.832l-3-2A1.006,1.006,0,0,0,56,37H54a1,1,0,0,0-1-1H49a1,1,0,0,0-1,1v1H45.668A14.04,14.04,0,0,0,36,27.59V24.3a12,12,0,1,0-8,0v3.29A14.04,14.04,0,0,0,18.332,38H15.414L13,35.586V33h1a1,1,0,0,0,1-1V28a1,1,0,0,0-1-1V6A4,4,0,0,0,6,6V27a1,1,0,0,0-1,1v4a1,1,0,0,0,1,1H7v2.586L4.293,38.293A1,1,0,0,0,4,39v4a1,1,0,0,0,.293.707L7,46.414V50a1,1,0,0,0,1,1H9v6h2V51h1a1,1,0,0,0,1-1V46.414L15.414,44h2.918A14.04,14.04,0,0,0,28,54.41V57H27a1,1,0,0,0-1,1v4a1,1,0,0,0,1,1H37a1,1,0,0,0,1-1V58a1,1,0,0,0-1-1H36V54.41A14.04,14.04,0,0,0,45.668,44H48v1A1,1,0,0,0,49,46Zm6.7-7L58,40.535v.93L55.7,43H54V39ZM50,38h2v6H50ZM22,13A10,10,0,1,1,32,23,10.011,10.011,0,0,1,22,13Zm8,11.819a11.14,11.14,0,0,0,4,0V27.16a12.58,12.58,0,0,0-4,0ZM13,31H7V29h6ZM8,6a2,2,0,0,1,4,0V7H10V9h2v2H10v2h2v2H10v2h2v2H10v2h2v2H10v2h2v2H8Zm3,27v2H9V33ZM9,49V47h2v2Zm5-6.414L11.586,45H8.414L6,42.586V39.414L8.414,37h3.172L14,39.414ZM16,42V40h2.051c-.024.332-.051.662-.051,1s.027.668.051,1ZM36,61H28V59h8Zm-2-4H30V54.84a12.58,12.58,0,0,0,4,0Zm-2-4A12,12,0,1,1,44,41,12.013,12.013,0,0,1,32,53ZM45.949,42c.024-.332.051-.662.051-1s-.027-.668-.051-1H48v2Z"/><path d="M26,13a6,6,0,1,1,10.412,4.065l1.471,1.357a8,8,0,1,0-11.766,0l1.471-1.357A5.971,5.971,0,0,1,26,13Z"/><path d="M32,15a1.986,1.986,0,0,0,1.788-2.879l1.044-1.566-1.664-1.11-1.045,1.567c-.041,0-.081-.012-.123-.012a1.986,1.986,0,0,0-1.788,2.879l-3.044,4.566,1.664,1.11,3.045-4.567C31.918,14.99,31.958,15,32,15Z"/></svg>
