<?xml version="1.0" encoding="UTF-8"?>
<svg xmlns="http://www.w3.org/2000/svg" id="Layer_3" data-name="Layer 3" viewBox="0 0 64 64" width="512" height="512"><path d="M62,40H19a1,1,0,0,0-.895.553L15,46.763,11.9,40.553A1,1,0,0,0,11,40H2a1,1,0,0,0-1,1v8a1,1,0,0,0,1,1H62a1,1,0,0,0,1-1V41A1,1,0,0,0,62,40ZM3,48V42h7.382l3,6Zm58,0H16.618l3-6H61Z"/><path d="M20,31v4a1,1,0,0,0,1.2.98l2.995-.6-1.086,2.171,1.79.894,2-4a1,1,0,0,0-.1-1.054.99.99,0,0,0-.991-.373l-3.8.76V31Z"/><path d="M8.634,35.773A1,1,0,0,0,9,35V31H7v2.78l-3.8-.76a.991.991,0,0,0-.991.373,1,1,0,0,0-.1,1.054l2,4,1.79-.894L4.809,35.382l3,.6A1.006,1.006,0,0,0,8.634,35.773Z"/><path d="M55,19V17h.757a9.182,9.182,0,0,1,6.536,2.707l1.414-1.414A11.173,11.173,0,0,0,55.757,15H55a1,1,0,0,0-1-1H28a1,1,0,0,0-1,1H20a8.008,8.008,0,0,0-7.931,7H12a1,1,0,0,0-1,1V33a1,1,0,0,0,1,1h2v2h2V34h2a1,1,0,0,0,1-1V23a.985.985,0,0,0-.749-.949A1.991,1.991,0,0,1,20,21h7.465l1.7,2.555A1,1,0,0,0,30,24h9a1,1,0,0,0,.707-.293L41.414,22H54a1,1,0,0,0,1-1,9.043,9.043,0,0,1,7.2,3.6l1.6-1.2A11.057,11.057,0,0,0,55,19ZM17,32H13V24h4Zm-.874-10H14.083A6.01,6.01,0,0,1,20,17h7v2H20A4.008,4.008,0,0,0,16.126,22Zm22.46,0H31.618l1-2H39a.994.994,0,0,1,.93.656ZM53,20H41.816A3,3,0,0,0,39,18H32a1,1,0,0,0-.895.553l-1.229,2.458L29,19.7V16H53Z"/></svg>
