<?xml version="1.0" encoding="UTF-8"?>
<svg xmlns="http://www.w3.org/2000/svg" id="Layer_3" data-name="Layer 3" viewBox="0 0 64 64" width="512" height="512"><path d="M20.293,50.707a1,1,0,0,0,1.414,0l9-9a1,1,0,0,0,0-1.414l-.793-.793,3.943-3.943,6.4,7.112,1.486-1.338-6.47-7.19,1.434-1.434-1.414-1.414-1.36,1.36-1.19-1.322-1.486,1.338,1.26,1.4L28.5,38.086l-.793-.793a1,1,0,0,0-1.414,0l-9,9a1,1,0,0,0,0,1.414ZM27,39.414,28.586,41,21,48.586,19.414,47Z"/><path d="M41.168,46.445,40,48.2l-1.168-1.752a1,1,0,0,0-.516-.393l-1.06-.354,1.3-.866a1,1,0,0,0,.152-1.539l-2-2-1.414,1.414,1.137,1.138-1.985,1.323a1,1,0,0,0,.239,1.78l2.674.892,1.81,2.715a1,1,0,0,0,1.664,0l1.609-2.414,3.316.829a1,1,0,0,0,1.213-1.213l-.93-3.717.909-2.724a1,1,0,0,0-.633-1.264l-3-1-.632,1.9,2.051.685-.685,2.051a1,1,0,0,0-.021.559l.6,2.383-2.382-.6A1,1,0,0,0,41.168,46.445Z"/><path d="M55,51h4a1,1,0,0,0,1-1V43.22a12.405,12.405,0,0,0-9.238-12.05L47,20.824V2a1,1,0,0,0-1-1H42a1,1,0,0,0-.979.794h0L37.189,20H26.811L22.978,1.794h0A1,1,0,0,0,22,1H18a1,1,0,0,0-1,1V20.824L13.238,31.17A12.405,12.405,0,0,0,4,43.22V50a1,1,0,0,0,1,1H9a1,1,0,0,0,1-1V42.1a5.225,5.225,0,0,1,3-4.7V62a1,1,0,0,0,1,1H50a1,1,0,0,0,1-1V37.4a5.225,5.225,0,0,1,3,4.7V50A1,1,0,0,0,55,51ZM41,11.6V20H39.232ZM24.768,20H23V11.6ZM18.94,21.342A1.022,1.022,0,0,0,19,21V3h2V21a1,1,0,0,0,1,1H42a1,1,0,0,0,1-1V3h2V21a1.022,1.022,0,0,0,.06.342L49,32.176V56H15V32.176ZM8,42.1V49H6V43.22a10.416,10.416,0,0,1,7-9.888v1.9A7.238,7.238,0,0,0,8,42.1ZM15,61V58H49v3ZM51,35.235v-1.9a10.416,10.416,0,0,1,7,9.888V49H56V42.1A7.238,7.238,0,0,0,51,35.235Z"/></svg>
