<?xml version="1.0" encoding="UTF-8"?>
<svg xmlns="http://www.w3.org/2000/svg" id="Layer_3" data-name="Layer 3" viewBox="0 0 64 64" width="512" height="512"><path d="M2,22.385a9.348,9.348,0,0,0,.671,3.485L8.214,39.729A38.809,38.809,0,0,0,12.289,47.3,1,1,0,0,0,12,48V58a1,1,0,0,0,1,1v3a1,1,0,0,0,1,1H28a1,1,0,0,0,1-1V59a1,1,0,0,0,1-1V48a.972.972,0,0,0-.184-.546,14.662,14.662,0,0,0,2.163-3.709l3.634-9.085q.782,1.361,1.666,2.654A.99.99,0,0,0,37,38V48a1,1,0,0,0,1,1v3a1,1,0,0,0,1,1H53a1,1,0,0,0,1-1V49a1,1,0,0,0,1-1V38a.972.972,0,0,0-.184-.546,14.662,14.662,0,0,0,2.163-3.709l4.71-11.775A4.354,4.354,0,0,0,57.646,16a3.642,3.642,0,0,0-3.276,2.024L53,20.764V6.618A3.638,3.638,0,0,0,52.618,5a3.6,3.6,0,0,0-3.236-2,3.374,3.374,0,0,0-2.3.909A3.569,3.569,0,0,0,40,4.569V9.561L39.394,6.73A3.472,3.472,0,0,0,36.017,4a3.434,3.434,0,0,0-2.443,1.012A4.244,4.244,0,0,0,32.433,8.99l.2.858A3.389,3.389,0,0,0,27,12.385a9.361,9.361,0,0,0,.225,2.007A3.589,3.589,0,0,0,24.382,13a3.374,3.374,0,0,0-2.3.909,3.569,3.569,0,0,0-7.077.66v4.992l-.606-2.831A3.472,3.472,0,0,0,11.017,14a3.434,3.434,0,0,0-2.443,1.012A4.244,4.244,0,0,0,7.433,18.99l.2.858A3.389,3.389,0,0,0,2,22.385ZM26,34.7a12.127,12.127,0,0,0-.719,12.1l.1.2H14.52a36.758,36.758,0,0,1-4.3-7.686A25.449,25.449,0,0,1,26,33.047ZM28,57H14V49H28Zm-1,4H15V59H27Zm3.122-18A12.7,12.7,0,0,1,27.6,46.957L27.07,45.9A10.134,10.134,0,0,1,27.7,35.749l.13-.2-.011-.007a1.023,1.023,0,0,0,.073-.1l3.264-6.528A1.654,1.654,0,0,1,32.646,28a2.355,2.355,0,0,1,2.186,3.229ZM28,16.693l3.768,9.419a3.634,3.634,0,0,0-2.4,1.912L28,30.764Zm8.46,11.6A25.586,25.586,0,0,1,51,23.044V24.7a12.127,12.127,0,0,0-.719,12.1l.1.2H39.514a36.95,36.95,0,0,1-2.939-4.746l.114-.284A4.258,4.258,0,0,0,36.46,28.3ZM53,47H39V39H53Zm-1,4H40V49H52Zm4.159-32.081A1.654,1.654,0,0,1,57.646,18a2.355,2.355,0,0,1,2.186,3.229L55.122,33A12.7,12.7,0,0,1,52.6,36.957L52.07,35.9A10.134,10.134,0,0,1,52.7,25.749l.13-.2-.011-.007a1.023,1.023,0,0,0,.073-.1ZM30.385,11a1.379,1.379,0,0,1,1.286.87l3.4,8.5a1,1,0,0,0,1.9-.6L34.382,8.541a2.258,2.258,0,0,1,.606-2.115A1.445,1.445,0,0,1,36.017,6a1.462,1.462,0,0,1,1.421,1.149L40.022,19.21A1,1,0,0,0,42,19V4.569a1.569,1.569,0,0,1,3.136-.087L46,20.056A1.019,1.019,0,0,0,47.028,21,1,1,0,0,0,48,20V6.382A1.384,1.384,0,0,1,49.382,5,1.619,1.619,0,0,1,51,6.618V21.044a27.6,27.6,0,0,0-15.863,5.748,4.346,4.346,0,0,0-1.169-.565l-4.44-11.1A7.369,7.369,0,0,1,29,12.385,1.387,1.387,0,0,1,30.385,11ZM6.671,21.87l3.4,8.5a1,1,0,0,0,1.9-.6L9.382,18.541a2.258,2.258,0,0,1,.606-2.115A1.445,1.445,0,0,1,11.017,16a1.462,1.462,0,0,1,1.421,1.149L15.022,29.21A1,1,0,0,0,17,29V14.569a1.569,1.569,0,0,1,3.136-.087L21,30.056A1.017,1.017,0,0,0,22.028,31,1,1,0,0,0,23,30V16.382A1.384,1.384,0,0,1,24.382,15,1.619,1.619,0,0,1,26,16.618V31.023A27.458,27.458,0,0,0,9.415,37.344L4.528,25.128A7.369,7.369,0,0,1,4,22.385a1.385,1.385,0,0,1,2.671-.515Z"/></svg>
