<?xml version="1.0" encoding="UTF-8"?>
<svg xmlns="http://www.w3.org/2000/svg" id="Layer_3" data-name="Layer 3" viewBox="0 0 64 64" width="512" height="512"><path d="M8,55H30a3,3,0,0,0,0-6H8a3,3,0,0,0,0,6Zm0-4H30a1,1,0,0,1,0,2H8a1,1,0,0,1,0-2Z"/><path d="M8,47H30a3,3,0,0,0,0-6H8a3,3,0,0,0,0,6Zm0-4H30a1,1,0,0,1,0,2H8a1,1,0,0,1,0-2Z"/><path d="M8,39H30a3,3,0,0,0,0-6H8a3,3,0,0,0,0,6Zm0-4H30a1,1,0,0,1,0,2H8a1,1,0,0,1,0-2Z"/><path d="M11,18a4,4,0,1,0-4-4A4,4,0,0,0,11,18Zm0-6a2,2,0,1,1-2,2A2,2,0,0,1,11,12Z"/><path d="M27,18a4,4,0,1,0-4-4A4,4,0,0,0,27,18Zm0-6a2,2,0,1,1-2,2A2,2,0,0,1,27,12Z"/><path d="M62,11H57V10h2a1,1,0,0,0,1-1V5a1,1,0,0,0-1-1H57V1H55V4H41a1,1,0,0,0-1-1H37V2a1,1,0,0,0-1-1H2A1,1,0,0,0,1,2V58a1,1,0,0,0,1,1v3a1,1,0,0,0,1,1H6a1,1,0,0,0,.97-.758L7.781,59H29.219l.811,3.242A1,1,0,0,0,31,63h3a1,1,0,0,0,1-1V59h1a1,1,0,0,0,1-1V57H54a1,1,0,0,0,1-1V55h7a1,1,0,0,0,1-1V50a1,1,0,0,0-.91-1l-11-1a.985.985,0,0,0-.764.258A1,1,0,0,0,50,49v2H37V29h3a1,1,0,0,0,1-1H55v3h2V28h2a1,1,0,0,0,1-1V23a1,1,0,0,0-1-1H57V21h5a1,1,0,0,0,1-1V17H61v2H56a1,1,0,0,0-1,1v2H41a1,1,0,0,0-1-1l-3,0V11l3,0a1,1,0,0,0,1-1H55v2a1,1,0,0,0,1,1h5v2h2V12A1,1,0,0,0,62,11ZM58,26H41V24H58ZM5.219,61H4V59H5.719ZM33,61H31.781l-.5-2H33Zm2-4H3V3H35ZM52,50.1l9,.818V53H55V52a1,1,0,0,0-1-1H52ZM53,53v2H37V53ZM39,23v4H37V23ZM39,9H37V5h2ZM58,6V8H41V6Z"/></svg>
