<?xml version="1.0" encoding="UTF-8"?>
<svg xmlns="http://www.w3.org/2000/svg" id="Layer_3" data-name="Layer 3" viewBox="0 0 64 64" width="512" height="512"><path d="M30.4,15.7a4.321,4.321,0,0,0-4.841.087A61.855,61.855,0,0,1,5.968,24.907l-1.324.353A4.908,4.908,0,0,0,1.6,32.354l4.654,8.534a4.051,4.051,0,0,0,6.33,1.014l7.2-7.241A12.481,12.481,0,0,1,28.577,31a6.43,6.43,0,0,0,6.091-4.4l5.623-3.28a5.06,5.06,0,0,0,.387.388L37.4,29.332A6.43,6.43,0,0,0,33,35.423a12.481,12.481,0,0,1-3.661,8.8l-7.273,7.227a4.054,4.054,0,0,0,1.046,6.3L31.646,62.4a4.907,4.907,0,0,0,7.093-3.044l.354-1.324a61.841,61.841,0,0,1,9.121-19.593A4.321,4.321,0,0,0,48.3,33.6l.639-3.194,7.02-10.028,1.334,1.333a1,1,0,0,0,1.414,0l3-3a1,1,0,0,0,0-1.414L59.594,15.18l3.225-4.607a1,1,0,0,0-.264-1.405l-3-2a1,1,0,0,0-.8-.138l-2.384.6.6-2.383a1,1,0,0,0-.138-.8l-2-3a1,1,0,0,0-1.405-.264L48.82,4.406,46.707,2.293a1,1,0,0,0-1.414,0l-.8.8A7.717,7.717,0,0,0,36.52,1.482L20.03,7.589A54.6,54.6,0,0,1,1,11v2A56.617,56.617,0,0,0,20.726,9.465L37.215,3.357a5.8,5.8,0,0,1,5.858,1.156l-.78.78a1,1,0,0,0,0,1.414l1.334,1.334L33.6,15.061ZM28.577,29A14.5,14.5,0,0,0,18.36,33.252L11.2,40.461A2.053,2.053,0,0,1,8.01,39.93L3.355,31.4a2.91,2.91,0,0,1,1.8-4.2l1.324-.353a63.831,63.831,0,0,0,20.225-9.414,2.351,2.351,0,0,1,3.389.759l2.253,3.943a4.952,4.952,0,0,1,.65,2.45A4.428,4.428,0,0,1,28.577,29ZM47,20a3,3,0,1,1-3-3A3,3,0,0,1,47,20Zm-.425,17.292a63.838,63.838,0,0,0-9.414,20.224l-.353,1.325a2.91,2.91,0,0,1-4.2,1.8L24.069,55.99A2.053,2.053,0,0,1,23,54.188a2.021,2.021,0,0,1,.508-1.354l7.241-7.194A14.5,14.5,0,0,0,35,35.423,4.428,4.428,0,0,1,39.423,31a4.952,4.952,0,0,1,2.45.65L45.816,33.9a2.35,2.35,0,0,1,.759,3.388ZM59.586,18,58,19.586l-.876-.876,1.306-1.866Zm-.773-8.922,1.781,1.187L47.181,29.427a1,1,0,0,0-.161.377l-.447,2.229-3.708-2.119a6.947,6.947,0,0,0-2.975-.883l2.517-4.315A4.953,4.953,0,0,0,44,25a4.992,4.992,0,0,0,4.167-7.753L55.512,9.9ZM44.414,6,46,4.414,47.156,5.57,45.29,6.876ZM34.573,16.819,53.735,3.406l1.188,1.781-.826,3.3-7.344,7.345a4.963,4.963,0,0,0-7.469,5.76L34.969,24.11a6.939,6.939,0,0,0-.883-2.975l-2.119-3.709L34.2,16.98A.98.98,0,0,0,34.573,16.819Z"/><rect x="43" y="19" width="2" height="2"/></svg>
