<?xml version="1.0" encoding="UTF-8"?>
<svg xmlns="http://www.w3.org/2000/svg" id="Layer_3" data-name="Layer 3" viewBox="0 0 64 64" width="512" height="512"><path d="M4,37h.074L6,62.077A1,1,0,0,0,7,63H17a1,1,0,0,0,1-1,5,5,0,0,0-3.827-4.862l.263-1.448a3.228,3.228,0,0,0,5.8-1.517l2.532-20.255A3.45,3.45,0,0,0,23.5,34,3.5,3.5,0,0,0,27,30.5a3.249,3.249,0,0,0-.034-.464l2.948-6.63a1,1,0,0,0-.467-1.3l-1.105-.552,1.105-2.211L37,23.118V45a1,1,0,0,0,.293.707l6,6A1,1,0,0,0,44,52h3v2a1,1,0,0,0,.248.659l7,8h0A1,1,0,0,0,55,63h5a1,1,0,0,0,1-1V21h0a1,1,0,0,0-.255-.667l-17-19A1,1,0,0,0,43,1H38a1,1,0,0,0-1,1h0V20.882l-6.658-3.329.553-1.106-1.79-.894-.552,1.105-1.106-.553-.894,1.79,1.105.552-1.105,2.211-1.106-.553a1,1,0,0,0-1.342.448l-2.643,5.286L19,24.72V21a8.02,8.02,0,0,0-.335-2.255,1,1,0,0,0,.243-.326l6-13a1,1,0,0,0-.461-1.314l-6-3a1,1,0,0,0-1.376.523l-.384.961-1.347-.9A4.107,4.107,0,0,0,9.468,3.116l-.021-.011a1,1,0,0,0-1.342.448l-2,4A1,1,0,0,0,6.553,8.9l.5.25A5.209,5.209,0,0,0,7,9.852a5.126,5.126,0,0,0,1.454,3.571A8.008,8.008,0,0,0,3,21V36A1,1,0,0,0,4,37ZM49,51V15.661l5,5.714V59.338l-5-5.714Zm7,10V22h3V61ZM50.183,11.528,57.763,20H55.454l-6.2-7.082Zm-3.015.917A1.006,1.006,0,0,0,47,13h0V50H45V10.18l3.31.552ZM42.553,3l4.989,5.577-3.019-.5L40.174,3ZM39,4.7,43,9.37V48.586l-4-4V24.118l1.553.777.894-1.79L39,21.882ZM6.08,37H15.8L12.165,57H7.618Zm9.041,22.879A2.989,2.989,0,0,1,15.83,61h-7.9l-.154-2H13A2.978,2.978,0,0,1,15.121,59.879Zm3.13-5.954a1.227,1.227,0,0,1-2.439-.041l-.349-3.839L17.835,37H18a1,1,0,0,0,1-1V32.416l1.844.769ZM23.5,32a1.5,1.5,0,0,1-.577-.115l-6.051-2.522a14.982,14.982,0,0,1-7.636-7.127,2.245,2.245,0,1,1,4.232-1.345,7.217,7.217,0,0,0,4.14,5.393l6.613,3.006A1.332,1.332,0,0,1,25,30.5,1.5,1.5,0,0,1,23.5,32Zm1.947-9.658L27.7,23.467,25.73,27.894a3.309,3.309,0,0,0-.682-.425l-1.764-.8Zm-7.923-5.7-.349-.175a3.932,3.932,0,0,1-1.893-4.98l.129-.323,3.852,1.712Zm-.453-9.629,4.064,1.806L20.1,11.062,16.154,9.308ZM18.525,3.38l4.161,2.081-.713,1.544L17.814,5.157ZM13.056,3a2.115,2.115,0,0,1,1.175.355l1.7,1.132-.619,1.549L11.273,4.018A2.1,2.1,0,0,1,13.056,3ZM9.447,5.342,14.563,7.9l-.921,2.3-5.3-2.65Zm3.629,6.814A5.847,5.847,0,0,0,13,12.95c0,.017,0,.033,0,.05h-.855a3.143,3.143,0,0,1-3.12-2.868ZM5,21a5.984,5.984,0,0,1,8.645-5.376,5.9,5.9,0,0,0,2.635,2.634l.061.031A6,6,0,0,1,17,21v2.487a5.214,5.214,0,0,1-1.559-2.925A4.247,4.247,0,1,0,7.447,23.13,16.985,16.985,0,0,0,16.1,31.209l.9.374V35H5Z"/></svg>
