<?xml version="1.0" encoding="UTF-8"?>
<svg xmlns="http://www.w3.org/2000/svg" id="Layer_3" data-name="Layer 3" viewBox="0 0 64 64" width="512" height="512"><path d="M62,31H60V13a1,1,0,0,0-1-1H55a1,1,0,0,0-1,1V27H42a1,1,0,0,0-1,1v3H36a1,1,0,0,0-1,1v4a1,1,0,0,0,1,1V57.654a5.714,5.714,0,0,0-2.781-1.3L32,56.152V43a8.009,8.009,0,0,0-8-8H22V32.416l3.154,1.314A3.5,3.5,0,0,0,30,30.5a3.249,3.249,0,0,0-.034-.464l2.948-6.63a1,1,0,0,0-.467-1.3l-1.105-.552,1.105-2.211L43.553,24.9l.894-1.79L33.342,17.553l.553-1.106-1.79-.894-.552,1.105-1.106-.553-.894,1.79,1.105.552-1.105,2.211-1.106-.553a1,1,0,0,0-1.342.448l-2.643,5.286L22,24.72V21a8.02,8.02,0,0,0-.335-2.255,1,1,0,0,0,.243-.326l6-13a1,1,0,0,0-.461-1.314l-6-3a1,1,0,0,0-1.376.523l-.384.961-1.347-.9a4.107,4.107,0,0,0-5.872,1.425l-.021-.011a1,1,0,0,0-1.342.448l-2,4A1,1,0,0,0,9.553,8.9l.5.25A5.209,5.209,0,0,0,10,9.852a5.126,5.126,0,0,0,1.454,3.571A8.008,8.008,0,0,0,6,21v3H2a1,1,0,0,0-1,1V44a6,6,0,0,0,3,5.188V62a1,1,0,0,0,1,1H9a1,1,0,0,0,1-1V50H24V60a3,3,0,0,0,3,3H41a1,1,0,0,0,1-1V55H56v7a1,1,0,0,0,1,1h4a1,1,0,0,0,1-1V37a1,1,0,0,0,1-1V32A1,1,0,0,0,62,31ZM58,14V29.586l-2-2V14ZM43,29H54.586l2,2H43Zm-6,4H61v2H37ZM24,37a6.006,6.006,0,0,1,6,6V56H26V45a3,3,0,0,0-3-3H14a6.006,6.006,0,0,1-5.91-5H24Zm2.5-5a1.5,1.5,0,0,1-.577-.115l-6.051-2.522a14.982,14.982,0,0,1-7.636-7.127,2.245,2.245,0,1,1,4.232-1.345,7.217,7.217,0,0,0,4.14,5.393l6.613,3.006A1.332,1.332,0,0,1,28,30.5,1.5,1.5,0,0,1,26.5,32Zm1.947-9.658L30.7,23.467,28.73,27.894a3.309,3.309,0,0,0-.682-.425l-1.764-.8Zm-7.923-5.7-.349-.175a3.932,3.932,0,0,1-1.893-4.98l.129-.323,3.852,1.712Zm-.453-9.629,4.064,1.806L23.1,11.062,19.154,9.308ZM21.525,3.38l4.161,2.081-.713,1.544L20.814,5.157ZM16.056,3a2.115,2.115,0,0,1,1.175.355l1.7,1.132-.619,1.549L14.273,4.018A2.1,2.1,0,0,1,16.056,3ZM12.447,5.342,17.563,7.9l-.921,2.3-5.3-2.65Zm3.629,6.814A5.847,5.847,0,0,0,16,12.95c0,.017,0,.033,0,.05h-.855a3.143,3.143,0,0,1-3.12-2.868ZM14,15a6,6,0,0,1,2.645.624,5.9,5.9,0,0,0,2.635,2.634l.061.031A6,6,0,0,1,20,21v2.487a5.214,5.214,0,0,1-1.559-2.925,4.247,4.247,0,1,0-7.994,2.568A16.985,16.985,0,0,0,19.1,31.209l.9.374V35H8V21A6.006,6.006,0,0,1,14,15ZM8,61H6V49.91A6,6,0,0,0,7,50H8ZM7,48a4,4,0,0,1-4-4V26H6V36a8.009,8.009,0,0,0,8,8h9a1,1,0,0,1,1,1v3ZM27,61a1,1,0,0,1-1-1V58h4.926l1.964.328A3.711,3.711,0,0,1,35.865,61Zm11,0V37h2V61Zm4-8V37H56V53Zm18,8H58V37h2Z"/><path d="M44.105,21.447l1.79-.894-.659-1.317,1.317.659a1,1,0,0,0,1.154-.188L49,18.414V21h2V16a1,1,0,0,0-1.707-.707l-2.49,2.49-3.356-1.678a1,1,0,0,0-1.342,1.342Z"/><rect x="35.764" y="26" width="4.472" height="2" transform="translate(-8.063 19.845) rotate(-26.565)"/></svg>
