<?xml version="1.0" encoding="UTF-8"?>
<svg xmlns="http://www.w3.org/2000/svg" id="Layer_3" data-name="Layer 3" viewBox="0 0 64 64" width="512" height="512"><path d="M19,38a6,6,0,1,0,6,6A6.006,6.006,0,0,0,19,38Zm0,10a4,4,0,1,1,4-4A4,4,0,0,1,19,48Z"/><path d="M45,38a6,6,0,1,0,6,6A6.006,6.006,0,0,0,45,38Zm0,10a4,4,0,1,1,4-4A4,4,0,0,1,45,48Z"/><path d="M49,34.841V32a1,1,0,0,0-1-1H42a1,1,0,0,0-1,1v1H23V32a1,1,0,0,0-1-1H16a1,1,0,0,0-1,1v2.841a10,10,0,1,0,13.983,9.487l.74-1.109a2.736,2.736,0,0,1,4.554,0l.74,1.109A9.994,9.994,0,1,0,49,34.841ZM47,33v1.2a10,10,0,0,0-4,0V33ZM17,33h4v1.2a10,10,0,0,0-4,0Zm2,19a8,8,0,1,1,8-8A8.009,8.009,0,0,1,19,52ZM32,40a4.721,4.721,0,0,0-3.354,1.4A10.032,10.032,0,0,0,23.33,35H40.67a10.032,10.032,0,0,0-5.316,6.4A4.721,4.721,0,0,0,32,40ZM45,52a8,8,0,1,1,8-8A8.009,8.009,0,0,1,45,52Z"/><path d="M32,6C14.907,6,1,14.075,1,24v9a12.79,12.79,0,0,0,4,8.883V44A14.015,14.015,0,0,0,19,58h.384A12.535,12.535,0,0,0,30.64,51h2.72a12.535,12.535,0,0,0,11.256,7H45A14.015,14.015,0,0,0,59,44V41.883A12.79,12.79,0,0,0,63,33V24C63,14.075,49.093,6,32,6ZM3,33a9.018,9.018,0,0,1,.28-2.2,16.624,16.624,0,0,0,1.814,2.171A5.974,5.974,0,0,0,5,34v4.785A9.966,9.966,0,0,1,3,33Zm50-5H11a5.994,5.994,0,0,0-5.123,2.893A12.91,12.91,0,0,1,4.19,28.472C7.739,21.849,18.859,17,32,17s24.261,4.849,27.81,11.473a12.936,12.936,0,0,1-1.687,2.42A5.994,5.994,0,0,0,53,28Zm4,16A12.013,12.013,0,0,1,45,56h-.384a10.538,10.538,0,0,1-9.7-6.394A1,1,0,0,0,34,49H30a1,1,0,0,0-.919.606A10.538,10.538,0,0,1,19.384,56H19A12.013,12.013,0,0,1,7,44V34a4,4,0,0,1,4-4H53a4,4,0,0,1,4,4Zm2-5.215V34a5.974,5.974,0,0,0-.094-1.025A16.558,16.558,0,0,0,60.72,30.8,9.018,9.018,0,0,1,61,33,9.966,9.966,0,0,1,59,38.785Zm1.707-12.568C56.084,19.645,44.961,15,32,15S7.916,19.645,3.293,26.217A8.83,8.83,0,0,1,3,24C3,15.178,16.009,8,32,8s29,7.178,29,16A8.824,8.824,0,0,1,60.707,26.217Z"/></svg>
