<svg id="Layer_3" height="512" viewBox="0 0 64 64" width="512" xmlns="http://www.w3.org/2000/svg" data-name="Layer 3"><path d="m5 32h12v2h-12z"/><path d="m5 36h12v2h-12z"/><path d="m5 40h12v2h-12z"/><path d="m5 44h12v2h-12z"/><path d="m5 48h12v2h-12z"/><path d="m30 31a3 3 0 1 0 3 3 3 3 0 0 0 -3-3zm0 4a1 1 0 1 1 1-1 1 1 0 0 1 -1 1z"/><path d="m30 39a3 3 0 1 0 3 3 3 3 0 0 0 -3-3zm0 4a1 1 0 1 1 1-1 1 1 0 0 1 -1 1z"/><path d="m39 31h2v14h-2z"/><path d="m35 31h2v14h-2z"/><path d="m58 22h-10a3 3 0 0 1 -3-3v-1h1a1 1 0 0 0 1-1v-10a1 1 0 0 0 -1-1h-1v-2h9v-2h-9v-1h-2v1h-1v2h1v2h-1a1 1 0 0 0 -1 1v10a1 1 0 0 0 1 1h1v1a5.006 5.006 0 0 0 5 5h10a3 3 0 0 1 3 3v31a3 3 0 0 1 -6 0v-17a7.006 7.006 0 0 0 -6-6.92v-3.08a8.009 8.009 0 0 0 -8-8h-32a8.009 8.009 0 0 0 -8 8v27a1 1 0 0 0 1 1h4.1a5 5 0 0 0 9.8 0h13.2a5 5 0 0 0 9.8 0h9.1a1 1 0 0 0 1-1v-21.9a5.009 5.009 0 0 1 4 4.9v17a5 5 0 0 0 10 0v-31a5.006 5.006 0 0 0 -5-5zm-15-14h2v8h-2zm-32 53a3 3 0 1 1 3-3 3 3 0 0 1 -3 3zm0-8a5.009 5.009 0 0 0 -4.9 4h-3.1v-26a6.006 6.006 0 0 1 6-6h12.726a7.976 7.976 0 0 0 -2.726 6v26h-3.1a5.009 5.009 0 0 0 -4.9-4zm32 4h-18v-26a2 2 0 0 1 2-2h14a2 2 0 0 1 2 2zm-9 4a3 3 0 0 1 -2.816-2h5.632a3 3 0 0 1 -2.816 2zm13-4h-2v-26a4 4 0 0 0 -4-4h-14a4 4 0 0 0 -4 4v26h-2v-26a6.006 6.006 0 0 1 6-6h14a6.006 6.006 0 0 1 6 6z"/></svg>