<?xml version="1.0" encoding="UTF-8"?>
<svg xmlns="http://www.w3.org/2000/svg" id="Layer_3" data-name="Layer 3" viewBox="0 0 64 64" width="512" height="512"><path d="M43,28V14a1,1,0,0,0,1-1V9a1,1,0,0,0-1-1H40a1,1,0,0,0-1-1H35a1,1,0,0,0-1,1H20a1,1,0,0,0-1-1H15a1,1,0,0,0-1,1H11a1,1,0,0,0-1,1v4a1,1,0,0,0,1,1V28a4,4,0,0,0,4,4H39A4,4,0,0,0,43,28ZM42,10v2H40V10ZM36,9h2v4H36Zm-2,1v2H20V10ZM16,9h2v4H16Zm-4,1h2v2H12Zm1,18V23.414l2.707-2.707-1.414-1.414L13,20.586V14h1a1,1,0,0,0,1,1h4a1,1,0,0,0,1-1h5.586l-4.793,4.793,1.414,1.414L28.414,14H34a1,1,0,0,0,1,1h4a1,1,0,0,0,1-1h1v4.586l-4.707,4.707,1.414,1.414L41,21.414V28a2,2,0,0,1-2,2H32.414l3.293-3.293-1.414-1.414L29.586,30H21.414l9.793-9.793-1.414-1.414L18.586,30H15A2,2,0,0,1,13,28Z"/><path d="M48.85,43.436A22.276,22.276,0,0,0,49,41V30h3a1,1,0,0,0,1-1V19a1,1,0,0,0-1-1H49V8a7.008,7.008,0,0,0-7-7H12A7.008,7.008,0,0,0,5,8V18H2a1,1,0,0,0-1,1V29a1,1,0,0,0,1,1H5V41A22,22,0,0,0,46.244,51.658L51.586,57,50.5,58.086l-.793-.793-1.414,1.414,3,3,1.414-1.414-.793-.793L53,58.414l4.293,4.293a1,1,0,0,0,1.414,0l4-4a1,1,0,0,0,0-1.414Zm-4.35,2.65-6.793-6.793a1,1,0,0,0-1.414,0l-2.8,2.8-2.114.529.528-2.114,5.1-5.1L46.086,44.5ZM51,20v8H49V20ZM3,28V20H5v8ZM27,61A20.023,20.023,0,0,1,7,41V8a5.006,5.006,0,0,1,5-5H42a5.006,5.006,0,0,1,5,5V41c0,.509-.02,1.019-.059,1.527l-9.234-9.234a1,1,0,0,0-1.414,0l-6,6a1,1,0,0,0-.263.465l-1,4a1,1,0,0,0,1.213,1.212l4-1a1,1,0,0,0,.464-.263L37,41.414l6.128,6.128a.987.987,0,0,0,.165,1.165l1.468,1.468A20.1,20.1,0,0,1,27,61Zm31-.414L45.414,48,48,45.414,60.586,58Z"/><path d="M28,45H27A10.011,10.011,0,0,0,17,55v1a1,1,0,0,0,1,1h1A10.011,10.011,0,0,0,29,47V46A1,1,0,0,0,28,45ZM19,55a8.009,8.009,0,0,1,8-8A8.009,8.009,0,0,1,19,55Z"/></svg>
