<?xml version="1.0" encoding="UTF-8"?>
<svg xmlns="http://www.w3.org/2000/svg" id="Layer_3" data-name="Layer 3" viewBox="0 0 64 64" width="512" height="512"><path d="M60,13H40a3,3,0,0,0-3,3v2a3,3,0,0,0,3,3V43a2.966,2.966,0,0,0-1,.184V28a3,3,0,0,0-3-3H34a3,3,0,0,0-3,3H25.456A14.223,14.223,0,0,0,29,18.6V17a1,1,0,0,0-1-1H24a1,1,0,0,0-1,1,13.908,13.908,0,0,1-5.018,10.713L17.638,28H9a3,3,0,0,0-3-3H4a3,3,0,0,0-3,3V48a3,3,0,0,0,3,3H6a3,3,0,0,0,2.816-2H31.184A3,3,0,0,0,34,51h2a2.981,2.981,0,0,0,2-.78A2.981,2.981,0,0,0,40,51H60a3,3,0,0,0,3-3V46a3,3,0,0,0-2-2.816V20.816A3,3,0,0,0,63,18V16A3,3,0,0,0,60,13Zm-1,8v2H42V21Zm0,18H42V37H59Zm0-4H42V33H59Zm0-4H42V29H59Zm0-4H42V25H59ZM42,41H59v2H42ZM17,30h2V47H17ZM15,47H13V30h2Zm6-17h2V47H21Zm4,0h2V47H25Zm4,0h2V47H29ZM24.969,18H27v.6A12.25,12.25,0,0,1,22.62,28H20.589A15.884,15.884,0,0,0,24.969,18ZM11,30V47H9V30ZM7,48a1,1,0,0,1-1,1H4a1,1,0,0,1-1-1V28a1,1,0,0,1,1-1H6a1,1,0,0,1,1,1Zm29,1H34a1,1,0,0,1-1-1V28a1,1,0,0,1,1-1h2a1,1,0,0,1,1,1V48A1,1,0,0,1,36,49Zm25-1a1,1,0,0,1-1,1H40a1,1,0,0,1-1-1V46a1,1,0,0,1,1-1H60a1,1,0,0,1,1,1Zm0-30a1,1,0,0,1-1,1H40a1,1,0,0,1-1-1V16a1,1,0,0,1,1-1H60a1,1,0,0,1,1,1Z"/></svg>
