<svg id="Layer_3" height="512" viewBox="0 0 64 64" width="512" xmlns="http://www.w3.org/2000/svg" data-name="Layer 3"><path d="m22.121 42.465a1.829 1.829 0 0 1 -2.586-2.586l38.172-38.172-1.414-1.414-38.172 38.172a3.828 3.828 0 0 0 5.414 5.414l40.172-40.172-1.414-1.414z"/><path d="m17.566 34.9a1 1 0 0 0 1.141-.194l4-4-1.414-1.414-1.984 1.984.685-6.167a1 1 0 0 0 -1.842-.64l-3.152 5.045v-1.514h-2v5a1 1 0 0 0 1.848.53l2.673-4.277-.515 4.637a1 1 0 0 0 .56 1.01z"/><path d="m19.165 49.449a1 1 0 0 0 -.084.945l1.848 4.311-6.444-3.579a1 1 0 0 0 -1.485.874v7h2v-5.3l7.515 4.175a1 1 0 0 0 1.4-1.268l-2.398-5.607h6.483v-2h-8a1 1 0 0 0 -.835.449z"/><path d="m30 49h2v2h-2z"/><path d="m34.5 50.458h2v12.083h-2z" transform="matrix(.414 -.91 .91 .414 -30.626 65.438)"/><path d="m19.397 19h12.207v2h-12.207z" transform="matrix(.573 -.819 .819 .573 -5.506 29.429)"/><path d="m11.063 39.97-.349-.28a.992.992 0 0 0 .286-.69v-37a1 1 0 0 0 -1-1h-8a1 1 0 0 0 -1 1v60a1 1 0 0 0 1 1h8a1 1 0 0 0 1-1v-13a1 1 0 0 0 -.286-.691l.348-.279a5.16 5.16 0 0 0 0-8.06zm-8.063-36.97h6v35.382l-6 3zm6 58h-6v-14.383l6 3zm.813-14.532-1.013.813-5.8-2.899v-.764l5.8-2.9 1.016.813a3.16 3.16 0 0 1 0 4.936z"/></svg>