<svg id="Layer_3" enable-background="new 0 0 512 512" height="512" viewBox="0 0 512 512" width="512" xmlns="http://www.w3.org/2000/svg"><g><path d="m128 144h112c4.418 0 8-3.582 8-8v-48c0-4.418-3.582-8-8-8h-112c-4.418 0-8 3.582-8 8v48c0 4.418 3.582 8 8 8zm8-48h96v32h-96z"/><path d="m128 48h16v16h-16z"/><path d="m160 48h16v16h-16z"/><path d="m192 48h16v16h-16z"/><path d="m224 48h16v16h-16z"/><path d="m64 400h32v104h16v-157.56l26.664-20h90.672l26.664 20v157.56h16v-104h32v104h16v-193.56c.128-36.562-25.142-68.312-60.8-76.392l-9.6-2.216c16.991-.826 30.356-14.821 30.4-31.832v-160c0-17.673-14.327-32-32-32h-128c-17.673 0-32 14.327-32 32v160c.044 17.011 13.409 31.006 30.4 31.832l-9.6 2.216c-35.658 8.08-60.928 39.83-60.8 76.392v193.56h16zm80-89.56v-68.096c14.388 22.091 43.961 28.336 66.052 13.948 5.57-3.627 10.32-8.378 13.948-13.948v68.096zm12.352-78.44h55.296c-8.775 15.27-28.267 20.535-43.536 11.76-4.891-2.811-8.949-6.869-11.76-11.76zm147.648 78.44v73.56h-32v-128c19.798 10.952 32.061 31.815 32 54.44zm-48-60.696v76.696l-16-12v-68.4l15.632 3.608c.128.024.24.072.368.096zm-152-49.744v-160c0-8.837 7.163-16 16-16h128c8.837 0 16 7.163 16 16v160c0 8.837-7.163 16-16 16h-128c-8.837 0-16-7.163-16-16zm24 46.04v68.4l-16 12v-76.696c.12 0 .24-.072.36-.096zm-32 9.912v128.048h-32v-73.56c-.073-22.641 12.191-43.524 32-54.488z"/><path d="m136 384c-4.418 0-8 3.582-8 8v32c0 4.418 3.582 8 8 8h96c4.418 0 8-3.582 8-8v-32c0-4.418-3.582-8-8-8zm88 32h-80v-16h80z"/><path d="m360 360c.042-10.134 6.445-19.15 16-22.528v102.528c0 4.418 3.582 8 8 8v56h16v-56h16v56h16v-56c4.418 0 8-3.582 8-8v-128c0-4.418-3.582-8-8-8v-24c-.042-10.134-6.445-19.15-16-22.528v-97.472h-16v97.472c-9.555 3.378-15.958 12.394-16 22.528v24c-4.418 0-8 3.582-8 8v8.8c-18.611 3.827-31.976 20.199-32 39.2v64h16zm32-40h32v112h-32zm8-40c0-4.418 3.582-8 8-8s8 3.582 8 8v24h-16z"/><path d="m400 112h16v24h-16z"/><path d="m428.685 128h22.624v16h-22.624z" transform="matrix(.707 -.707 .707 .707 32.706 350.959)"/><path d="m367.999 124.686h16v22.624h-16z" transform="matrix(.707 -.707 .707 .707 13.962 305.704)"/><path d="m360 160h24v16h-24z"/><path d="m432 160h24v16h-24z"/></g></svg>